<svg width="20" height="19" viewBox="0 0 20 19" fill="none" xmlns="http://www.w3.org/2000/svg">
<path d="M9.59989 15.3048C9.84747 15.1618 10.1525 15.1618 10.4001 15.3048L15.1774 18.064C15.7871 18.4161 16.5215 17.8658 16.3547 17.1818L15.1125 12.0861C15.04 11.7887 15.1435 11.476 15.3792 11.2807L19.4899 7.87292C20.0418 7.41536 19.7596 6.5187 19.0451 6.45974L13.564 6.00745C13.2724 5.98339 13.0172 5.80203 12.8985 5.53454L10.7313 0.648627C10.45 0.014465 9.55001 0.0144648 9.26871 0.648627L7.10146 5.53454C6.98281 5.80203 6.72759 5.98339 6.43596 6.00746L0.952364 6.45995C0.238206 6.51888 -0.0442278 7.41484 0.507031 7.87267L4.61111 11.2812C4.84606 11.4763 4.94941 11.7882 4.87749 12.085L3.64185 17.1847C3.47618 17.8684 4.21025 18.4177 4.81947 18.0658L9.59989 15.3048Z" fill="#686B6F"/>
</svg>
